PathFileType	4	(X/Y/Z)	/Users/itak/Documents/Research/Walk-IL/dataset/trc/00394_00012.trc
DataRate	CameraRate	NumFrames	NumMarkers	Units	OrigDataRate	OrigDataStartFrame	OrigNumFrames
100.000000	100.000000	4	54	mm	100.000000	0	683
Frame#	Time	RPSI			LPSI			L3			STRN			T10			C7			CLAV			RBAK			LBAK			LSHO			LUPA			LAEL			LAOL			LWTS			LWPS			LFRA			LIFD			LHPS			RSHO			RUPA			RAEL			RAOL			RWTS			RWPS			RFRA			RIFD			RHTS			RHPS			RBHD			LFHD			RFHD			LBHD			RHIP			RASI			LASI			LKNE			LTHI			LANK			LTIP			LTOE			LMT1			LMT5			LHEE			RKNE			RTHI			RANK			RTIP			RTOE			RMT1			RMT5			RHEE			LHTS			LHIP			*53			
		X1	Y1	Z1	X2	Y2	Z2	X3	Y3	Z3	X4	Y4	Z4	X5	Y5	Z5	X6	Y6	Z6	X7	Y7	Z7	X8	Y8	Z8	X9	Y9	Z9	X10	Y10	Z10	X11	Y11	Z11	X12	Y12	Z12	X13	Y13	Z13	X14	Y14	Z14	X15	Y15	Z15	X16	Y16	Z16	X17	Y17	Z17	X18	Y18	Z18	X19	Y19	Z19	X20	Y20	Z20	X21	Y21	Z21	X22	Y22	Z22	X23	Y23	Z23	X24	Y24	Z24	X25	Y25	Z25	X26	Y26	Z26	X27	Y27	Z27	X28	Y28	Z28	X29	Y29	Z29	X30	Y30	Z30	X31	Y31	Z31	X32	Y32	Z32	X33	Y33	Z33	X34	Y34	Z34	X35	Y35	Z35	X36	Y36	Z36	X37	Y37	Z37	X38	Y38	Z38	X39	Y39	Z39	X40	Y40	Z40	X41	Y41	Z41	X42	Y42	Z42	X43	Y43	Z43	X44	Y44	Z44	X45	Y45	Z45	X46	Y46	Z46	X47	Y47	Z47	X48	Y48	Z48	X49	Y49	Z49	X50	Y50	Z50	X51	Y51	Z51	X52	Y52	Z52	X53	Y53	Z53	X54	Y54	Z54	

1	0	946.2213745117188	978.755126953125	-0.2179145514965057	938.6287841796875	970.622314453125	-130.7915802001953	946.4454345703125	1042.073852539062	-63.15272903442383	1179.598999023438	1209.32861328125	-63.67076873779297	936.762451171875	1143.211059570312	-68.92481994628906	956.9169921875	1394.936157226562	-82.17923736572266	1119.456665039062	1325.629638671875	-68.88265991210938	920.26416015625	1247.389526367188	-12.1608772277832	951.547607421875	1353.416870117188	-186.2896423339844	1041.184448242188	1374.036743164062	-233.3294677734375	1030.685791015625	1254.248168945312	-301.8268737792969	1065.968872070312	1058.294677734375	-318.6626586914062	1006.30126953125	1035.21240234375	-260.9444580078125	1174.697387695312	855.4193725585938	-263.3033142089844	1127.17333984375	833.2576293945312	-327.0260620117188	1091.785522460938	954.9703979492188	-322.8755493164062	1188.142822265625	675.544921875	-256.0769653320312	1148.91748046875	750.150390625	-315.3482666015625	1014.512451171875	1378.553955078125	81.35662078857422	1005.001586914062	1313.169555664062	140.7816772460938	1039.919067382812	1053.433349609375	183.5120544433594	1021.151123046875	1038.068237304688	93.68350219726562	1184.039916992188	847.2535400390625	156.02734375	1144.8369140625	834.9747314453125	217.4160614013672	1072.628173828125	991.1011352539062	199.5579071044922	1188.457763671875	675.2525024414062	157.1473541259766	1208.007202148438	742.6842041015625	175.8332672119141	1151.562377929688	744.3655395507812	215.7010955810547	987.5175170898438	1590.049682617188	1.962379097938538	1144.612670898438	1592.536254882812	-120.8045425415039	1121.721435546875	1596.882080078125	-0.02405275218188763	1000.178588867188	1582.692749023438	-158.2000732421875	1032.1640625	954.031982421875	113.4137649536133	1163.049194335938	963.1746826171875	56.67939376831055	1142.0419921875	957.5033569335938	-207.2468566894531	1041.916015625	465.4987487792969	-225.6301422119141	1046.356323242188	608.1486206054688	-236.9075622558594	919.4600219726562	34.84157943725586	-191.1363372802734	976.3223876953125	238.7453308105469	-221.7557983398438	1134.348266601562	29.69776344299316	-124.4550933837891	1051.697265625	32.94696426391602	-95.10642242431641	1046.991943359375	32.2376823425293	-199.3917846679688	879.884521484375	29.18039703369141	-136.2480163574219	1043.2666015625	467.4874877929688	92.77783966064453	1095.928588867188	730.2868041992188	114.7983245849609	959.896240234375	46.65971755981445	62.19001007080078	1038.682861328125	340.6101989746094	77.68788909912109	1138.692260742188	29.49944686889648	-4.457159519195557	1062.580810546875	34.91004943847656	-30.75666046142578	1044.776977539062	37.33184432983398	66.13967132568359	886.185302734375	33.61690139770508	9.665581703186035	1202.105834960938	759.3057250976562	-279.5470886230469	1028.372680664062	957.4990844726562	-244.5232696533203	nan	nan	nan	
2	0.01	946.2183837890625	978.754150390625	-0.2287053912878036	938.631103515625	970.609130859375	-130.7979888916016	946.4526977539062	1042.065551757812	-63.15945816040039	1179.619750976562	1209.330444335938	-63.70247268676758	936.7279663085938	1143.210693359375	-68.93363952636719	956.91455078125	1394.936645507812	-82.18225860595703	1119.460083007812	1325.629516601562	-68.90084075927734	920.2833862304688	1247.38330078125	-12.16079616546631	951.5328369140625	1353.40576171875	-186.2892150878906	1041.161010742188	1374.017333984375	-233.3383178710938	1030.669921875	1254.234252929688	-301.8319702148438	1065.953979492188	1058.267211914062	-318.6515197753906	1006.292602539062	1035.2001953125	-260.9365539550781	1174.698486328125	855.4085083007812	-263.2661437988281	1127.179931640625	833.2455444335938	-326.9907531738281	1091.777465820312	954.9453735351562	-322.8550720214844	1188.160400390625	675.5569458007812	-256.0158386230469	1148.920288085938	750.1231689453125	-315.2978515625	1014.524963378906	1378.551147460938	81.35343170166016	1005.013854980469	1313.171875	140.7621917724609	1040.060180664062	1053.421752929688	183.5165710449219	1021.055725097656	1038.037231445312	93.59803009033203	1184.083129882812	847.2484130859375	155.9362945556641	1144.86962890625	834.965576171875	217.3297882080078	1072.68701171875	991.0859375	199.5269470214844	1188.617431640625	675.262939453125	157.1037292480469	1208.124145507812	742.683349609375	175.7606811523438	1151.552734375	744.320556640625	215.5964660644531	987.572998046875	1590.069580078125	1.971464276313782	1144.650512695312	1592.507934570312	-120.8154983520508	1121.767456054688	1596.833740234375	-0.06919903308153152	1000.199523925781	1582.705688476562	-158.1930084228516	1032.258056640625	954.0243530273438	113.4212493896484	1163.046142578125	963.1683959960938	56.64961242675781	1142.04345703125	957.4915771484375	-207.265625	1041.919189453125	465.4983215332031	-225.6374816894531	1046.36328125	608.145263671875	-236.91162109375	919.4623413085938	34.8457145690918	-191.1366119384766	976.321044921875	238.7454833984375	-221.7645721435547	1134.348999023438	29.69581031799316	-124.4559097290039	1051.6982421875	32.9504508972168	-95.10704803466797	1046.980834960938	32.22471237182617	-199.3849029541016	879.8867797851562	29.1756534576416	-136.2471618652344	1043.273559570312	467.4933166503906	92.77751922607422	1096.434692382812	730.05224609375	114.4401168823242	959.8936157226562	46.65652847290039	62.18960952758789	1038.680297851562	340.6109924316406	77.68324279785156	1138.693115234375	29.50106239318848	-4.455745697021484	1062.580932617188	34.91007614135742	-30.75687217712402	1044.778198242188	37.33590698242188	66.13902282714844	886.1724243164062	33.6104736328125	9.664874076843262	1202.107788085938	759.3134765625	-279.5133056640625	1028.37060546875	957.4898681640625	-244.5415344238281	nan	nan	nan	
3	0.02	946.215576171875	978.75341796875	-0.2416114211082458	938.6340942382812	970.5919799804688	-130.8064880371094	946.4667358398438	1042.052124023438	-63.16617584228516	1179.645751953125	1209.332763671875	-63.74187850952148	936.6829833984375	1143.208618164062	-68.94172668457031	956.9099731445312	1394.935302734375	-82.18540191650391	1119.462890625	1325.629638671875	-68.92312622070312	920.3035888671875	1247.371704101562	-12.16072845458984	951.5128173828125	1353.392333984375	-186.2883758544922	1041.128051757812	1373.994262695312	-233.3489685058594	1030.646850585938	1254.214965820312	-301.8359375	1065.936157226562	1058.234130859375	-318.6367797851562	1006.281372070312	1035.183715820312	-260.9243774414062	1174.69873046875	855.395751953125	-263.2144165039062	1127.187377929688	833.2304077148438	-326.943603515625	1091.768798828125	954.9166870117188	-322.8284606933594	1188.178100585938	675.573974609375	-255.9353179931641	1148.925415039062	750.0890502929688	-315.2325744628906	1014.538513183594	1378.545654296875	81.35019683837891	1005.030029296875	1313.165649414062	140.7386474609375	1040.228271484375	1053.4033203125	183.5139617919922	1020.923217773438	1037.989013671875	93.47591400146484	1184.138061523438	847.238037109375	155.8143463134766	1144.912109375	834.9505615234375	217.2139129638672	1072.756591796875	991.0626220703125	199.4790191650391	1188.811279296875	675.2694702148438	157.0410003662109	1208.276977539062	742.6868896484375	175.6655731201172	1151.560302734375	744.2698974609375	215.4693145751953	987.6466064453125	1590.095703125	1.984628081321716	1144.696166992188	1592.468505859375	-120.8320922851562	1121.832397460938	1596.770629882812	-0.1293929815292358	1000.221801757812	1582.721557617188	-158.1800384521484	1032.367065429688	954.0138549804688	113.4283218383789	1163.043579101562	963.1604614257812	56.611572265625	1142.044555664062	957.4759521484375	-207.2887878417969	1041.925415039062	465.4971008300781	-225.6465301513672	1046.372314453125	608.1405639648438	-236.9172668457031	919.4645385742188	34.85026168823242	-191.1370849609375	976.3193969726562	238.7454833984375	-221.7748870849609	1134.349853515625	29.69355392456055	-124.4568634033203	1051.698974609375	32.95484924316406	-95.10778045654297	1046.968505859375	32.21046829223633	-199.3772735595703	879.889892578125	29.16917037963867	-136.2459411621094	1043.28076171875	467.5011291503906	92.77894592285156	1097.003051757812	729.7913208007812	114.040641784668	959.89013671875	46.65237045288086	62.18923950195312	1038.675659179688	340.6122131347656	77.67838287353516	1138.69384765625	29.50226974487305	-4.453752040863037	1062.5810546875	34.91016387939453	-30.75710487365723	1044.779541015625	37.34064865112305	66.13834381103516	886.1548461914062	33.60195922851562	9.663861274719238	1202.104614257812	759.3121948242188	-279.4544067382812	1028.367431640625	957.477783203125	-244.5641174316406	nan	nan	nan	
4	0.03	946.213623046875	978.7533569335938	-0.2555855810642242	938.6376953125	970.5717163085938	-130.8168029785156	946.4895629882812	1042.032592773438	-63.17147827148438	1179.675537109375	1209.335571289062	-63.78688430786133	936.630126953125	1143.203735351562	-68.94684600830078	956.9025268554688	1394.930541992188	-82.18800354003906	1119.463989257812	1325.630249023438	-68.94805145263672	920.3218994140625	1247.353393554688	-12.1605920791626	951.4879150390625	1353.3779296875	-186.287109375	1041.085205078125	1373.969116210938	-233.3604583740234	1030.6162109375	1254.1904296875	-301.8372192382812	1065.916748046875	1058.197875976562	-318.6188354492188	1006.267639160156	1035.163330078125	-260.9073791503906	1174.697631835938	855.38232421875	-263.1481628417969	1127.195190429688	833.2130126953125	-326.8855285644531	1091.7607421875	954.8871459960938	-322.7964172363281	1188.192504882812	675.5960693359375	-255.8373413085938	1148.933349609375	750.0498657226562	-315.1549072265625	1014.551452636719	1378.536499023438	81.34765625	1005.05029296875	1313.146240234375	140.7131958007812	1040.41015625	1053.376708984375	183.5000915527344	1020.755676269531	1037.921630859375	93.31649780273438	1184.202270507812	847.2208862304688	155.6637725830078	1144.962890625	834.9283447265625	217.0702514648438	1072.830810546875	991.0302124023438	199.4116973876953	1189.02880859375	675.2688598632812	156.9594268798828	1208.461181640625	742.697021484375	175.5506744384766	1151.596801757812	744.2190551757812	215.3292846679688	987.73681640625	1590.127319335938	2.002421855926514	1144.746215820312	1592.417724609375	-120.8551864624023	1121.91650390625	1596.694580078125	-0.2030997276306152	1000.242004394531	1582.73876953125	-158.1595001220703	1032.478759765625	954.0007934570312	113.432861328125	1163.042114257812	963.1512451171875	56.56681823730469	1142.045288085938	957.45751953125	-207.3153533935547	1041.935668945312	465.4947814941406	-225.6566925048828	1046.383178710938	608.1345825195312	-236.9244689941406	919.4661865234375	34.85467529296875	-191.1377868652344	976.3175048828125	238.7451477050781	-221.785888671875	1134.350830078125	29.69121170043945	-124.4578857421875	1051.698974609375	32.95990371704102	-95.10848999023438	1046.956298828125	32.19667434692383	-199.3697509765625	879.8936767578125	29.16107559204102	-136.244384765625	1043.286743164062	467.5107421875	92.78303527832031	1097.576049804688	729.531494140625	113.641731262207	959.8858642578125	46.64738464355469	62.18900299072266	1038.668701171875	340.6139526367188	77.67417907714844	1138.694213867188	29.50258255004883	-4.451139450073242	1062.580810546875	34.91033935546875	-30.7573299407959	1044.780883789062	37.34537124633789	66.13777923583984	886.1331176757812	33.59151458740234	9.66259765625	1202.093994140625	759.2973022460938	-279.3652954101562	1028.36279296875	957.4638061523438	-244.5901031494141	nan	nan	nan	
